<svg width="26" height="24" viewBox="0 0 26 24" fill="none" xmlns="http://www.w3.org/2000/svg">
<path d="M6.39613 8.62978C6.1013 8.79501 5.8753 8.93108 5.64027 9.05119C5.3197 9.21503 5.02 9.17129 4.80095 8.88943C3.90601 7.73906 3.01803 6.58314 2.14047 5.41958C1.91169 5.11619 1.96732 4.76351 2.2712 4.52608C3.37475 3.66452 4.47622 2.79949 5.60132 1.96709C6.28765 1.46098 7.08594 1.18328 7.94681 1C7.94194 3.85127 9.5844 5.34738 12.1427 6.13188C11.8179 6.83792 11.4925 7.54953 11.165 8.25974C10.8458 8.95191 10.5336 9.64685 10.204 10.3335C9.85768 11.0548 9.85768 11.7546 10.3778 12.3801C10.8736 12.9765 11.5307 13.2944 12.3179 13.1299C13.1503 12.9556 13.6273 12.3968 13.7851 11.5713C14.1085 11.5567 14.4416 11.5949 14.7447 11.5178C15.954 11.2103 16.4978 9.91205 15.8768 8.82625C15.4123 8.01398 14.9137 7.22115 14.4304 6.41929C14.3713 6.32071 14.3115 6.22282 14.2427 6.10897C16.7245 5.30086 18.3356 3.80823 18.3217 1.00069C19.2076 1.17634 20.0289 1.4825 20.7409 2.01082C21.8375 2.82448 22.9098 3.67007 23.9848 4.5122C24.3158 4.77185 24.3603 5.12522 24.1065 5.45984C23.247 6.59355 22.3806 7.7224 21.5086 8.84638C21.2541 9.17476 20.9516 9.22544 20.5886 9.02966C20.3675 8.91095 20.1519 8.78182 19.878 8.62492C19.8981 11.2513 19.741 13.8262 20.259 16.3401C16.1125 16.6851 14.6314 19.2434 14.5271 23H11.6865C11.7832 21.2915 11.4306 19.7183 10.3403 18.3784C9.24437 17.0323 7.83624 16.3255 5.99421 16.4283C6.52617 13.8387 6.3711 11.2624 6.39752 8.62769L6.39613 8.62978Z" fill="#4C4C4D"/>
<path d="M16.9861 1C17.0845 2.51033 16.4341 3.56617 15.2511 4.29837C13.7826 5.20736 12.2941 5.16072 10.8652 4.19676C9.76597 3.45551 9.18138 2.42403 9.28527 1.00348C11.8522 1.61805 14.3963 1.63685 16.9861 1Z" fill="#4C4C4D"/>
<path d="M10.4047 23C7.82404 22.8172 6.12895 20.4293 6.04102 17.8227C6.78702 17.7278 7.48697 17.8497 8.14575 18.2201C9.83735 19.1706 10.6252 21.1985 10.4047 23Z" fill="#4C4C4D"/>
<path d="M20.2282 17.8345C20.2014 20.1238 18.7008 22.7921 15.9676 23C15.5527 20.1252 17.805 17.4174 20.2282 17.8345Z" fill="#4C4C4D"/>
<path d="M12.5057 8.75163C12.5057 9.59611 12.5071 10.4413 12.505 11.2858C12.5043 11.5295 12.408 11.7297 12.1562 11.8248C11.8596 11.9361 11.6199 11.8017 11.4167 11.6211C11.237 11.4616 11.202 11.2572 11.3104 11.0346C11.6848 10.2648 12.055 9.49293 12.4265 8.72244C12.4529 8.73195 12.4793 8.74213 12.5057 8.75163Z" fill="#4C4C4D"/>
<path d="M13.8426 8.00409C14.139 8.50345 14.4606 8.98969 14.7168 9.50909C14.7917 9.66173 14.7358 9.94284 14.6377 10.0996C14.5682 10.2101 14.3202 10.264 14.1635 10.2454C13.9115 10.2157 13.7759 10.0043 13.7704 9.75221C13.7582 9.17963 13.7663 8.60706 13.7663 8.03448C13.7922 8.02412 13.8174 8.01445 13.8433 8.00409H13.8426Z" fill="#4C4C4D"/>
</svg>
