<svg width="22" height="20" viewBox="0 0 22 20" fill="none" xmlns="http://www.w3.org/2000/svg">
<path d="M17.4695 9.888V10.3962C17.4695 13.2472 17.4695 16.0973 17.4695 18.9483C17.4695 19.7744 17.2443 20 16.4177 20C12.8102 20 9.20347 20 5.59594 20C4.77176 20 4.54735 19.7736 4.54654 18.9458C4.54654 16.0949 4.54654 13.2448 4.54654 10.3938V9.888C4.30034 10.0229 4.10256 10.1256 3.90963 10.238C3.36394 10.556 3.08384 10.503 2.72785 9.97471C2.05461 8.97515 1.39349 7.96756 0.726716 6.96319C0.54186 6.6846 0.348124 6.41002 0.172954 6.12581C-0.138637 5.6192 -0.0248176 5.13909 0.478896 4.81795C2.37993 3.60564 4.29146 2.40857 6.17796 1.17458C6.67037 0.852635 7.17489 0.745855 7.723 0.81731C7.96679 0.10116 8.10967 0 8.84748 0C10.2876 0 11.7277 0 13.1678 0C13.9088 0 14.0485 0.0987515 14.2931 0.822127C15.1084 0.617398 15.7081 1.09751 16.3402 1.50215C18.058 2.60367 19.7806 3.69636 21.5 4.79467C22.0603 5.15274 22.1434 5.56381 21.781 6.10654C20.9196 7.39914 20.0591 8.69335 19.2019 9.98836C18.8701 10.4893 18.5795 10.5584 18.0588 10.2461C17.8877 10.1433 17.7182 10.0381 17.4703 9.8864L17.4695 9.888Z" fill="#262626"/>
</svg>
