<svg width="18" height="22" viewBox="0 0 18 22" fill="none" xmlns="http://www.w3.org/2000/svg">
<path d="M8.87088 3.90586C9.44128 3.58339 10.0525 3.24602 10.6527 2.89059C10.7429 2.83724 10.812 2.707 10.841 2.59873C11.0332 1.88318 11.1949 1.15821 11.4012 0.44737C11.5134 0.0629196 11.7951 -0.0814456 12.0752 0.0480123C12.4086 0.202577 12.4063 0.473262 12.309 0.778469C12.1748 1.1998 12.0501 1.62505 11.9261 2.04951C11.7292 2.7274 11.7731 3.37704 12.0689 4.03218C12.4408 4.85522 12.2925 5.69316 11.9033 6.455C11.3055 7.62405 11.3871 8.75229 11.8806 9.92055C12.8315 12.1755 14.1598 14.2036 15.5799 16.1785C16.2123 17.0588 16.9012 17.8983 17.5359 18.777C17.6528 18.9387 17.7289 19.2525 17.6481 19.3984C17.5681 19.5436 17.2566 19.6487 17.062 19.6275C14.946 19.4031 12.9555 19.8496 11.1493 20.9088C8.85912 22.252 6.51397 22.2434 4.08722 21.4847C2.77302 21.0735 1.54592 20.4647 0.396491 19.7052C-0.0828957 19.3882 -0.117418 19.1693 0.238003 18.7198C2.02295 16.4633 3.72552 14.1479 5.06168 11.591C5.47673 10.7969 5.79371 9.95037 6.12245 9.11477C6.42609 8.34273 6.30134 7.57697 5.99378 6.82847C5.8604 6.50286 5.7176 6.17961 5.61011 5.84537C5.43515 5.29773 5.36061 4.71007 5.61639 4.19459C6.1099 3.19972 5.9216 2.24174 5.61011 1.26806C5.54656 1.06955 5.47046 0.874974 5.40377 0.678041C5.30412 0.384603 5.38337 0.145302 5.67602 0.0385972C5.96475 -0.0673229 6.21268 0.0480123 6.2982 0.344589C6.51083 1.08132 6.68815 1.82825 6.89606 2.56734C6.93215 2.69445 7.02238 2.84195 7.13144 2.90786C7.70733 3.25621 8.29813 3.58104 8.8701 3.90664L8.87088 3.90586Z" fill="#4C4C4D"/>
</svg>
